<svg xmlns="http://www.w3.org/2000/svg" width="159.41" height="97.05" viewBox="0 0 159.41 97.05">
  <g id="Group_27468" data-name="Group 27468" transform="translate(-32.664 -28.822)">
    <path id="Union_1" data-name="Union 1" d="M95.183-511.351a4.356,4.356,0,0,1-2.17-2.261,11.579,11.579,0,0,1-.513-3.9v-1.47h5.422v2.731a3.6,3.6,0,0,0,.229,1.623.886.886,0,0,0,.811.361.95.95,0,0,0,.867-.458,2.605,2.605,0,0,0,.284-1.358,4.205,4.205,0,0,0-.541-2.593,17.22,17.22,0,0,0-2.731-2.039,26.873,26.873,0,0,1-2.884-2.093,4.89,4.89,0,0,1-1.171-1.8,7.912,7.912,0,0,1-.465-2.939,8.152,8.152,0,0,1,.659-3.771,4.435,4.435,0,0,1,2.128-1.865,8.5,8.5,0,0,1,3.55-.672,9.25,9.25,0,0,1,3.875.734,4.056,4.056,0,0,1,2.121,1.851,9.8,9.8,0,0,1,.52,3.792v.887H99.752v-1.664a3.247,3.247,0,0,0-.209-1.483.765.765,0,0,0-.693-.319.883.883,0,0,0-.8.43,2.5,2.5,0,0,0-.27,1.3,3.7,3.7,0,0,0,.3,1.693,4.418,4.418,0,0,0,1.65,1.372q3.9,2.313,4.91,3.8a8.7,8.7,0,0,1,1.012,4.784,8.387,8.387,0,0,1-.562,3.535,4.394,4.394,0,0,1-2.17,1.907,8.6,8.6,0,0,1-3.743.77A8.373,8.373,0,0,1,95.183-511.351Zm-81.161.173a5.265,5.265,0,0,1-1.95-1.768,5.594,5.594,0,0,1-.832-2.211,26.6,26.6,0,0,1-.167-3.473V-525.3a22.316,22.316,0,0,1,.346-4.672,4.8,4.8,0,0,1,1.99-2.669,6.977,6.977,0,0,1,4.25-1.213,7.913,7.913,0,0,1,4.256,1.054,4.971,4.971,0,0,1,2.2,2.5,13.25,13.25,0,0,1,.513,4.208v.971H18.8v-2.038a10.111,10.111,0,0,0-.167-2.412.737.737,0,0,0-.79-.486.736.736,0,0,0-.735.416,6.8,6.8,0,0,0-.193,2.136v10.773a6.441,6.441,0,0,0,.193,1.989.756.756,0,0,0,.777.479.855.855,0,0,0,.867-.541,6.31,6.31,0,0,0,.229-2.107v-2.662H17.8v-3.411h6.836v12.049H20.965l-.54-1.609a4.085,4.085,0,0,1-1.506,1.561,4.254,4.254,0,0,1-2.144.519A5.559,5.559,0,0,1,14.022-511.178Zm93.467.243v-22.447h9.733v4.492h-3.9v4.256h3.647v4.271h-3.647v4.937h4.285v4.492Zm-21.64,0-.313-4.035H83.448l-.351,4.035H77.063l2.977-22.447h8.437l3.338,22.447Zm-2.475-8.014h2.009q-.444-3.814-.889-9.428Q83.6-521.93,83.374-518.95ZM62.7-510.935v-22.447h5.824a15.368,15.368,0,0,1,4.18.429A4.147,4.147,0,0,1,75-531.214a7.82,7.82,0,0,1,.873,4.219,4.541,4.541,0,0,1-.617,2.743,4.3,4.3,0,0,1-2.434,1.192,4.325,4.325,0,0,1,2.746,1.519,5.866,5.866,0,0,1,.721,3.253v2.081a8.262,8.262,0,0,1-.52,3.37,2.8,2.8,0,0,1-1.657,1.5,16.992,16.992,0,0,1-4.658.4Zm5.837-3.84a2.488,2.488,0,0,0,1.573-.388,2.72,2.72,0,0,0,.34-1.706v-2.094a2.957,2.957,0,0,0-.305-1.747,2.737,2.737,0,0,0-1.608-.346Zm0-9.775c.249-.009.444-.014.582-.014q.86,0,1.1-.423a6.9,6.9,0,0,0,.236-2.418,3.905,3.905,0,0,0-.194-1.477.929.929,0,0,0-.506-.534,4.45,4.45,0,0,0-1.213-.125ZM26.893-510.935v-22.447h5.837v17.955h3.55v4.492Zm21.633-6.241-6.111,4.429-.064-.021,2.363-7.2-6.026-4.365v-.086h7.453l2.342-7.154h.086l2.342,7.154h7.453v.086l-6.026,4.365,2.363,7.2-.064.021Zm26.891-36.083a86.62,86.62,0,0,1,40.748.408,67.876,67.876,0,0,1,14,5.2,156.52,156.52,0,0,0-18.982-4.4,109.31,109.31,0,0,0-18.878-1.322q1.106.128,2.209.292a46.336,46.336,0,0,1,10.671,2.908,3.77,3.77,0,0,1,.942.554c.154.123.205.375.3.569-.223.108-.45.318-.669.309-1.086-.044-2.172-.146-3.257-.228-4.007-.305-8-.8-12.029-.779a24.676,24.676,0,0,0-12.537,3.02,1.125,1.125,0,0,1-.169.043,10.23,10.23,0,0,1,3.532-2.289,26.291,26.291,0,0,1,8.4-1.561c3.043-.095,6.092,0,9.139.015.116,0,.231.005.347.009l.032-.156c-1.967-.365-3.929-.77-5.9-1.083a53.6,53.6,0,0,0-8.407-.641c-12.011,0-30.04,7-30.139,7.016A73.219,73.219,0,0,1,75.417-553.259ZM18.33-546.99a47,47,0,0,1-4.9-.247c-14.37-1.5-21.668-9.254-21.623-9.314.171.1,7.968,5.36,15.284,6.131-.092-.841-1.21-1.423-.372-2.31H7.852c-.193-.772-1.173-1.339-.388-2.149l.973-.087a3.724,3.724,0,0,1-.571-1.169c-.028-.368.095-.887.726-.76.064-.543-.58-1.205.208-1.428.114-.591.212-1.091.309-1.591l.2,0c.091.365.19.73.269,1.1.033.15-.028.409.045.448.524.28.3.626.148.995a2.376,2.376,0,0,0-.085.546l.57-.05c.723.814-.244,1.257-.355,1.97l1.1.065c.708.915-.5,1.391-.509,2.185h1.254c.806.971-.626,1.451-.487,2.311h1.205l.786.772c.059-.926-1.08-1.376-.4-2.181h1.078c-.053-.709-1.086-1.109-.449-1.888l.957-.051c-.546-1.264-.546-1.264-.324-1.712h.5l-.2-.093q.243-1.232.484-2.464l.232.021c.2.82.391,1.639.6,2.541.58.21.6.387.059,1.639.284.287,1.069-.038.975.671a6.277,6.277,0,0,1-.527,1.364h.956c.7.807-.279,1.283-.288,1.991a39.736,39.736,0,0,0,8.37-.684,6.5,6.5,0,0,1-.582-1.016c-.1-.3.742-.946,1.209-.946-.23-.394-.419-.7-.59-1.013-.3-.554-.124-.865.487-.892a5.521,5.521,0,0,0,.553-.081,4.379,4.379,0,0,1-.572-1.092c-.08-.426.185-.706.5-.621l.5-2.6.216.014c.2.864.393,1.728.595,2.617,1.053.406.175,1.1.064,1.727,1.928,0,1.207,3.256,1.662,3.307s-.875-3.006,1.093-3.006c.033-.08.067-.161.1-.241a11.77,11.77,0,0,1-.961-1.4,1.389,1.389,0,0,1-.015-.938c.042-.141.376-.247.59-.274a10.782,10.782,0,0,1,1.234-.013,4.188,4.188,0,0,0-.588-1.006c-.621-.544-.468-1.059-.048-1.628l.755.2c.388-.686-1.212-1.61.107-1.966l.5-2.01.319.007.349,1.877c.24.392.527.66.548.946a3.834,3.834,0,0,1-.3,1.156l.68-.11c1.155.981-.032,1.643-.307,2.495l1.409.068c1.005,1.145-.465,1.769-.585,2.776h1.648c1.02,1.142-.365,1.76-.537,2.747,1.514-.388,2.952-.766,4.4-1.121.589-.145,1.166-.274,1.264-.99h1.113c-.2-.327-.356-.569-.5-.819-.338-.6-.206-.829.464-.824.152,0,.305-.022.469-.036-.194-.534-.374-1.029-.574-1.58l.943-.087c.041-.525-1.1-1.178.021-1.453.146-.751.278-1.426.41-2.1l.237,0c.157.7.312,1.394.481,2.143.913.293.112.914.063,1.4.889.169.889.169.4,1.706l.941.053V-554a2.282,2.282,0,0,0,.764-.383,2.416,2.416,0,0,0,.323-.785h1.24c-.009-.772-1.138-1.227-.5-2.063h1.292c-.277-.464-.512-.822-.709-1.2a.527.527,0,0,1,.491-.82c.2-.008.4-.023.694-.041a4.918,4.918,0,0,1-.607-1.14c-.1-.468.171-.758.689-.638.14-.5-.508-.925.1-1.432.273-.226.189-.883.266-1.344l.27.019c.035.483-.1,1.263.138,1.4.706.4.284.853.338,1.259.256.246.589.528.586.806a3.174,3.174,0,0,1-.48,1.084l.815.085c.875.779-.3,1.292-.269,2h1.157v1.286c18.044-5.106,36.3-6.577,54.76-3.2.09-.409.166-.751.243-1.1h1.091c-.16-.683-1.047-1.167-.319-1.913l.729-.066c-.407-1.627-.407-1.627.1-1.751.172-.783.322-1.492.488-2.2a2.47,2.47,0,0,1,.2-.445l.194.013c.148.875.3,1.749.444,2.633.4-.124.607.2.515.623a5.257,5.257,0,0,1-.585,1.15h1.045c.078.19.227.371.185.477-.19.476-.433.93-.692,1.464H111.6c.626.878-.518,1.3-.436,2.073a7.448,7.448,0,0,1,2.052.583l0-.261,1.1-.41c-.562-1.15-.562-1.15.382-1.617-.434-.909-.407-1.1.035-1.322.2-.765.377-1.414.551-2.063l.2.02c.116.65.232,1.3.363,2.026,1.17.237-.02.926.043,1.445,1.976.053.235,1.049.4,1.6a3.565,3.565,0,0,1,.355.03c.2.039.55.053.574.146a1.29,1.29,0,0,1-.105.684,7.08,7.08,0,0,1-.4.794,4.038,4.038,0,0,1,1,.017c.285.086.516.35.8.446a80.631,80.631,0,0,1,17.372,8.2c.328.208.652.425.977.637-6.714-2.726-18.029-8.3-34.807-10.523-20.705-2.743-32.1.848-37.2,1.8-4.177.781-8.3,1.874-12.423,2.917-6.8,1.719-13.612,3.376-20.518,4.612a77.221,77.221,0,0,1-13.584,1.4Zm105-22.534,4.015,10.249-13.938-20.664-8.187,12.03,1.033-7.531-19.463,12.9,10.08-10.841-7.425-3.524,4.122,4.229-12.956-7.966L63.266-603.518l-5.475,6.123,3.852-1.516-5.7,6.449,1.2,15.473-4.171-13.85-14.952,13.4-3.085,9.564.1-10.459,10.94-11.261-11.441,6.4,5.319-5.966-7.155-7.8L21.8-582.709l9.1-5.631L15.7-569.005l2.57-6.926-13.986,13.1L9.653-571-15-555.935l47.533-43.141,9.81,7.589,20.922-14.85,19.57,23.791L98.988-574.3l14.473-11.17,30.221,37.97Zm-9.407-2.008v-5.457l8.772,14.333ZM74.3-575.69l-6.556-.463,4.3-3.974L64.373-595.8l15.341,21.28-11.046,7.932Zm-32.73-2.21,9.715-7.9L39.769-571.628Z" transform="translate(48 635.836)" stroke="rgba(0,0,0,0)" stroke-miterlimit="10" stroke-width="1"/>
  </g>
</svg>
