<svg xmlns="http://www.w3.org/2000/svg" xmlns:xlink="http://www.w3.org/1999/xlink" width="30.907" height="31.136" viewBox="0 0 30.907 31.136">
  <defs>
    <clipPath id="clip-path">
      <rect id="Rectangle_15875" data-name="Rectangle 15875" width="30.907" height="31.136" fill="#fff"/>
    </clipPath>
  </defs>
  <g id="Group_1801" data-name="Group 1801" clip-path="url(#clip-path)">
    <path id="Path_2536" data-name="Path 2536" d="M24.261,36.866l-5.8-2.912a2.278,2.278,0,0,0-2.159.214l-1.687,1.248a1.853,1.853,0,0,1-1.926-.116,28.09,28.09,0,0,1-6.2-8.379,1.853,1.853,0,0,1,.452-1.876L8.624,23.8a2.278,2.278,0,0,0,.836-2l-1.088-6.4A2.544,2.544,0,0,0,4.537,13.7a7.456,7.456,0,0,0-.748.487C-2.1,18.543-.66,26.931,4.9,34.5h0l.036.047.035.048h0c5.614,7.533,13.216,11.358,19.1,7a7.454,7.454,0,0,0,.684-.573,2.544,2.544,0,0,0-.5-4.161" transform="translate(0 -12.298)" fill="#fff"/>
    <path id="Path_2537" data-name="Path 2537" d="M189.775,105.336a10.626,10.626,0,0,1,5.411,5.526.822.822,0,1,0,1.514-.641,12.266,12.266,0,0,0-6.244-6.382.822.822,0,1,0-.681,1.5" transform="translate(-174.546 -95.681)" fill="#fff"/>
    <path id="Path_2538" data-name="Path 2538" d="M196.665,51.569a.822.822,0,1,0-.556,1.548,14.634,14.634,0,0,1,9.255,9.993.822.822,0,0,0,1.59-.42,16.278,16.278,0,0,0-10.289-11.121" transform="translate(-180.329 -47.506)" fill="#fff"/>
    <path id="Path_2539" data-name="Path 2539" d="M216.928,15.757A19.956,19.956,0,0,0,212.135,6a20.622,20.622,0,0,0-9.32-5.962.822.822,0,1,0-.483,1.572,18.83,18.83,0,0,1,12.977,14.441.822.822,0,0,0,.808.677.836.836,0,0,0,.147-.013.822.822,0,0,0,.663-.955" transform="translate(-186.033 0.001)" fill="#fff"/>
  </g>
</svg>
