<svg id="Group_2271" data-name="Group 2271" xmlns="http://www.w3.org/2000/svg" xmlns:xlink="http://www.w3.org/1999/xlink" width="14.645" height="14.752" viewBox="0 0 14.645 14.752">
  <defs>
    <clipPath id="clip-path">
      <rect id="Rectangle_15875" data-name="Rectangle 15875" width="14.644" height="14.752" fill="#e59601"/>
    </clipPath>
  </defs>
  <g id="Group_1801" data-name="Group 1801" clip-path="url(#clip-path)">
    <path id="Path_2536" data-name="Path 2536" d="M11.495,24.485l-2.75-1.38a1.079,1.079,0,0,0-1.023.1l-.8.591a.878.878,0,0,1-.913-.055,13.309,13.309,0,0,1-2.938-3.97.878.878,0,0,1,.214-.889l.8-.591a1.079,1.079,0,0,0,.4-.949l-.516-3.033a1.205,1.205,0,0,0-1.817-.8,3.533,3.533,0,0,0-.354.231c-2.788,2.063-2.108,6.037.527,9.624h0l.017.022.017.023h0c2.66,3.569,6.261,5.381,9.05,3.318a3.532,3.532,0,0,0,.324-.271,1.205,1.205,0,0,0-.235-1.972" transform="translate(0 -12.845)" fill="#e59601"/>
    <path id="Path_2537" data-name="Path 2537" d="M189.522,104.509a5.035,5.035,0,0,1,2.564,2.618.39.39,0,1,0,.717-.3,5.812,5.812,0,0,0-2.959-3.024.39.39,0,1,0-.323.709" transform="translate(-182.307 -99.935)" fill="#e59601"/>
    <path id="Path_2538" data-name="Path 2538" d="M196.086,51.543a.39.39,0,1,0-.263.733,6.933,6.933,0,0,1,4.385,4.734.39.39,0,0,0,.753-.2,7.712,7.712,0,0,0-4.875-5.269" transform="translate(-188.347 -49.618)" fill="#e59601"/>
    <path id="Path_2539" data-name="Path 2539" d="M208.942,7.465a9.455,9.455,0,0,0-2.271-4.624A9.77,9.77,0,0,0,202.255.016a.39.39,0,0,0-.229.745A8.921,8.921,0,0,1,208.175,7.6a.39.39,0,0,0,.383.321.4.4,0,0,0,.07-.006.39.39,0,0,0,.314-.452" transform="translate(-194.304 0.001)" fill="#e59601"/>
  </g>
</svg>
