<svg xmlns="http://www.w3.org/2000/svg" xmlns:xlink="http://www.w3.org/1999/xlink" width="40" height="28" viewBox="0 0 40 28">
  <defs>
    <clipPath id="clip-path">
      <rect id="Rectangle_16091" data-name="Rectangle 16091" width="40" height="28" fill="#e59601"/>
    </clipPath>
  </defs>
  <g id="Group_27465" data-name="Group 27465" transform="translate(-663 -445)">
    <g id="Group_1954" data-name="Group 1954" transform="translate(663 445)">
      <g id="Group_1953" data-name="Group 1953" clip-path="url(#clip-path)">
        <path id="Path_3237" data-name="Path 3237" d="M40,1.231c0-.013,0-.025,0-.038s0-.051,0-.077l-.006-.051c0-.023,0-.046-.009-.068L39.968.941c0-.02-.008-.041-.014-.061s-.011-.038-.017-.057L39.919.767,39.9.709c-.007-.017-.014-.034-.022-.051s-.02-.04-.031-.06-.015-.03-.024-.044-.026-.042-.04-.063L39.758.46l0,0c-.015-.02-.031-.039-.046-.058S39.689.374,39.68.363L39.643.325a1.115,1.115,0,0,0-.2-.165L39.424.149c-.015-.01-.032-.017-.047-.026S39.344.1,39.327.1L39.312.09a1.047,1.047,0,0,0-.248-.075L39.017.007l-.043,0c-.022,0-.045,0-.067,0H1.093c-.023,0-.045,0-.068,0l-.042,0L.934.016A1,1,0,0,0,.691.089L.674.1C.657.1.641.114.624.123S.592.139.576.149L.56.16a1.043,1.043,0,0,0-.2.165C.345.337.332.35.32.363L.293.4C.277.416.261.435.247.455l0,0C.235.47.229.481.223.491S.195.532.182.554.166.583.158.6.137.637.127.658.112.692.1.709.089.747.082.767.069.8.063.823.051.861.046.88.037.921.032.941.024.978.021,1s-.007.045-.01.068L0,1.116c0,.026,0,.051,0,.077s0,.025,0,.038V26.777c0,.028,0,.055,0,.083l0,.039q0,.042.012.084l.005.036c.005.029.012.057.019.085l.008.032c0,.016.01.032.015.048s.014.044.022.065l.01.023a.928.928,0,0,0,.037.086c0,.009.01.018.015.027.013.026.026.052.041.076l.021.031c.014.022.029.045.045.067l0,0,.019.023c.018.022.037.045.056.066l.035.036c.017.016.033.032.051.047l.041.035c.017.014.034.026.052.039l.044.029a.487.487,0,0,0,.058.034l.041.023c.023.011.046.021.07.03l.035.014a.816.816,0,0,0,.084.026l.025.007a.858.858,0,0,0,.1.018l.015,0A.866.866,0,0,0,1.1,28H38.9a.892.892,0,0,0,.116-.007l.014,0a.821.821,0,0,0,.1-.018l.025-.007a.689.689,0,0,0,.085-.026l.034-.014c.024-.009.047-.019.07-.03l.041-.022c.02-.011.04-.022.059-.035s.029-.019.043-.029.035-.025.052-.039l.042-.035.05-.047.035-.036c.02-.021.038-.044.056-.066l.019-.023,0,0c.016-.022.031-.045.046-.067s.014-.02.02-.031.028-.05.041-.076l.016-.027c.013-.028.025-.057.037-.086l.01-.023c.008-.021.014-.044.021-.065l.016-.048.007-.032c.007-.028.014-.056.019-.085a.223.223,0,0,0,0-.036q.008-.042.012-.084l0-.039c0-.028,0-.055,0-.083V1.231ZM2.2,3.8l11.007,9.895L2.2,24.116Zm22.188,8.9-.007.006L20,16.642,15.618,12.7l-.005-.005L4.226,2.462H35.775Zm-9.434,2.565,4.358,3.917a1.01,1.01,0,0,0,1.377,0l4.357-3.917L35.9,25.539H4.1Zm11.839-1.57L37.8,3.8V24.116Z" fill="#e59601"/>
      </g>
    </g>
  </g>
</svg>
