<svg xmlns="http://www.w3.org/2000/svg" xmlns:xlink="http://www.w3.org/1999/xlink" width="31" height="31" viewBox="0 0 31 31">
  <defs>
    <clipPath id="clip-path">
      <rect id="Rectangle_15875" data-name="Rectangle 15875" width="31" height="31"/>
    </clipPath>
  </defs>
  <g id="Group_27464" data-name="Group 27464" transform="translate(-498.5 -853)">
    <g id="Group_1950" data-name="Group 1950" transform="translate(498.5 853)">
      <g id="Group_1801" data-name="Group 1801" clip-path="url(#clip-path)">
        <path id="Path_2536" data-name="Path 2536" d="M24.334,36.763l-5.821-2.9a2.3,2.3,0,0,0-2.166.214L14.655,35.32a1.87,1.87,0,0,1-1.932-.116A27.982,27.982,0,0,1,6.5,26.861a1.835,1.835,0,0,1,.453-1.868l1.692-1.243a2.26,2.26,0,0,0,.839-1.993L8.4,15.383A2.555,2.555,0,0,0,4.551,13.7a7.485,7.485,0,0,0-.75.485C-2.1,18.52-.662,26.871,4.917,34.409h0l.036.047.035.048h0c5.631,7.5,13.255,11.308,19.158,6.972a7.463,7.463,0,0,0,.686-.57,2.523,2.523,0,0,0-.5-4.143" transform="translate(0 -12.303)"/>
        <path id="Path_2537" data-name="Path 2537" d="M189.777,105.329a10.617,10.617,0,0,1,5.428,5.5.827.827,0,0,0,1.081.435.816.816,0,0,0,.438-1.073,12.256,12.256,0,0,0-6.263-6.354.827.827,0,0,0-1.092.406.816.816,0,0,0,.409,1.084" transform="translate(-174.502 -95.716)"/>
        <path id="Path_2538" data-name="Path 2538" d="M196.669,51.568a.827.827,0,0,0-1.055.494.817.817,0,0,0,.5,1.047,14.612,14.612,0,0,1,9.283,9.949.824.824,0,0,0,.8.61.836.836,0,0,0,.211-.027.818.818,0,0,0,.587-1,16.254,16.254,0,0,0-10.32-11.072" transform="translate(-180.284 -47.524)"/>
        <path id="Path_2539" data-name="Path 2539" d="M216.973,15.688a19.811,19.811,0,0,0-4.807-9.717A20.7,20.7,0,0,0,202.818.035a.826.826,0,0,0-1.03.542.818.818,0,0,0,.546,1.023A18.8,18.8,0,0,1,215.35,15.978a.823.823,0,0,0,.811.674.844.844,0,0,0,.147-.013.819.819,0,0,0,.665-.951" transform="translate(-185.986 0.001)"/>
      </g>
    </g>
  </g>
</svg>
