<svg xmlns="http://www.w3.org/2000/svg" width="335" height="58" viewBox="0 0 335 58">
  <g id="Group_27465" data-name="Group 27465" transform="translate(-20 -357)">
    <g id="Group_27464" data-name="Group 27464">
      <g id="Group_27461" data-name="Group 27461">
        <path id="Path_106911" data-name="Path 106911" d="M0,0H19" transform="translate(237 386)" fill="none" stroke="#d0d0d0" stroke-width="1"/>
        <path id="Path_106912" data-name="Path 106912" d="M0,0H19" transform="translate(119 386)" fill="none" stroke="#d0d0d0" stroke-width="1"/>
        <g id="Path_106913" data-name="Path 106913" transform="translate(20 357)" fill="none">
          <path d="M0,0H100V58H0Z" stroke="none"/>
          <path d="M 1 1 L 1 57 L 99 57 L 99 1 L 1 1 M 0 0 L 100 0 L 100 58 L 0 58 L 0 0 Z" stroke="none" fill="#d0d0d0"/>
        </g>
        <g id="Path_106914" data-name="Path 106914" transform="translate(137.5 357)" fill="none">
          <path d="M0,0H100V58H0Z" stroke="none"/>
          <path d="M 1 1 L 1 57 L 99 57 L 99 1 L 1 1 M 0 0 L 100 0 L 100 58 L 0 58 L 0 0 Z" stroke="none" fill="#e59601"/>
        </g>
        <g id="Path_106915" data-name="Path 106915" transform="translate(255 357)" fill="none">
          <path d="M0,0H100V58H0Z" stroke="none"/>
          <path d="M 1 1 L 1 57 L 99 57 L 99 1 L 1 1 M 0 0 L 100 0 L 100 58 L 0 58 L 0 0 Z" stroke="none" fill="#d0d0d0"/>
        </g>
        <path id="Path_106916" data-name="Path 106916" d="M0,0H100V22H0Z" transform="translate(20 357)" fill="#d0d0d0"/>
        <path id="Path_106917" data-name="Path 106917" d="M0,0H100V22H0Z" transform="translate(137.5 357)" fill="#e59601"/>
        <path id="Path_106918" data-name="Path 106918" d="M0,0H100V22H0Z" transform="translate(255 357)" fill="#d0d0d0"/>
        <path id="Path_106919" data-name="Path 106919" d="M-13.1-12.656v1.936h3.648c.048.544.112,1.12.224,1.728l-.976-.176c-.88,4.208-2.784,7.3-6.112,8.976A15.2,15.2,0,0,1-14.576,1.36a13.845,13.845,0,0,0,5.9-7.9A13.519,13.519,0,0,0-2.784,1.344,10.244,10.244,0,0,1-1.248-.32c-5.888-3.472-6.32-9.312-6.32-12.336ZM8.96-10.224v-3.3H6.928v3.3h-4.9v1.952H6.848A9.756,9.756,0,0,1,1.536-.08,7.589,7.589,0,0,1,3.024,1.472C7.52-1.072,8.64-4.96,8.9-8.272h4.48C13.12-3.52,12.8-1.424,12.32-.928a.945.945,0,0,1-.752.256c-.416,0-1.36,0-2.368-.08a4.42,4.42,0,0,1,.656,1.968,16.273,16.273,0,0,0,2.56-.032,2.156,2.156,0,0,0,1.632-.9c.7-.832,1.024-3.232,1.344-9.6.032-.256.048-.912.048-.912Z" transform="translate(70 402)" fill="#d0d0d0"/>
        <path id="Path_106920" data-name="Path 106920" d="M-21.7-9.04v5.776a41.765,41.765,0,0,0-3.952-3.968,12.126,12.126,0,0,0,.224-1.808Zm-9.344,0h3.648a6.339,6.339,0,0,1-3.648,5.9ZM-19.808-10.9h-5.6v-2.656h-1.968V-10.9h-5.568V1.424h1.9V-3.088A7.742,7.742,0,0,1-29.712-1.68a8.3,8.3,0,0,0,3.44-3.68,33.463,33.463,0,0,1,3.008,3.344L-21.7-3.232v2.4c0,.288-.1.368-.4.384-.3,0-1.376.016-2.32-.032a6.24,6.24,0,0,1,.624,1.888,8.259,8.259,0,0,0,3.1-.336c.672-.3.88-.832.88-1.856Zm6.048.352h9.84v1.712h1.952v-3.44h-5.9v-1.28H-9.824v1.28h-5.792v3.44h1.856Zm5.936,1.392A21.685,21.685,0,0,1-3.9-6.1l1.44-1.248A23.475,23.475,0,0,0-6.48-10.272ZM-11.7-10.24a9.322,9.322,0,0,1-3.552,2.752,11.59,11.59,0,0,1,1.312,1.52,13.443,13.443,0,0,0,4.08-3.648Zm.4,6.144a13.426,13.426,0,0,0,2.56-2.416A13.555,13.555,0,0,0-6.032-4.1Zm-.128,3.36v-1.7H-6.16v1.7Zm1.632-7.5a15.151,15.151,0,0,1-6.3,4.72A9.435,9.435,0,0,1-15.024-1.9a16.565,16.565,0,0,0,1.76-.9V1.392h1.84V.944H-6.16v.432h1.936v-4.32c.608.336,1.216.64,1.792.9A11.4,11.4,0,0,1-1.248-3.776,14.711,14.711,0,0,1-7.856-8.24ZM10.16-1.92h1.568V-.784H10.16Zm-3.072-6h-2.7c.224-.96.416-1.952.56-2.96H7.2v1.728H8.816v-1.312h1.12A9.651,9.651,0,0,1,7.088-6.992Zm-1.6,5.744h-1.3V-6.288h1.3Zm6.24-3.648H10.16V-6.9h1.568Zm0,2.528H10.16V-4.432h1.568ZM16.256-.784H13.472V-1.92h2.064V-3.3H13.472V-4.432h2.064V-5.824H13.472V-6.9h2.416V-8.464H13.84c.208-.4.416-.816.608-1.248L12.72-10.08a11.484,11.484,0,0,1-.56,1.616h-1.3a13.047,13.047,0,0,0,1.024-2H14.5v1.312h1.68v-2.912h-3.7c.112-.384.224-.768.32-1.168l-1.792-.32a14.519,14.519,0,0,1-.416,1.488H7.344v-.544H1.616v1.728H3.168a15.853,15.853,0,0,1-2.1,6.624A9.7,9.7,0,0,1,2.08-2.448a8.331,8.331,0,0,0,.576-.88V.72H4.192V-.528h2.9V-6.416a13.252,13.252,0,0,1,.928,1.088c.112-.08.24-.176.352-.272V1.392H10.16V.768h6.1Zm15.3-10.56c-.112,2.368-.24,3.312-.464,3.568a.5.5,0,0,1-.48.192c-.16,0-.432,0-.768-.016l.768-1.232a12.951,12.951,0,0,0-1.456-.8,12.65,12.65,0,0,0,.4-1.712ZM25.216-9.552a18.685,18.685,0,0,1,1.76.672,5.262,5.262,0,0,1-2.3,2.016A4.52,4.52,0,0,1,25.744-5.52,6.506,6.506,0,0,0,28.5-8.128c.32.176.608.352.88.528a4.592,4.592,0,0,1,.448,1.664A10.761,10.761,0,0,0,31.552-6a1.431,1.431,0,0,0,1.056-.608c.432-.512.592-2,.752-5.616.016-.224.016-.7.016-.7H25.44v1.584h2.4q-.1.5-.24,1.008c-.512-.192-1.024-.384-1.5-.528Zm2.1,4.1A11.981,11.981,0,0,1,30.1-3.312L31.28-4.528A11.113,11.113,0,0,0,28.416-6.56Zm-3.056-7.6H19.7v1.44h4.56Zm.48,2.144H18.928v1.5h5.808ZM24.3-8.688H19.648v1.456H24.3ZM19.648-5.072H24.3V-6.5H19.648ZM22.736-.944H21.168v-1.84h1.568ZM24.32-4.288H19.6V1.168h1.568V.544H24.32V-.24l1.3.784a7.616,7.616,0,0,0,1.232-3.888l-1.5-.384a7.22,7.22,0,0,1-1.024,3.3Zm4.72,3.92c-.288,0-.32-.048-.32-.5V-4.352H26.96v3.5c0,1.584.3,2.112,1.808,2.112H30.08c1.136,0,1.6-.528,1.776-2.624A4.584,4.584,0,0,1,30.3-2.048c-.048,1.472-.112,1.68-.416,1.68Zm1.792-3.12a11.83,11.83,0,0,1,1.6,4.032l1.68-.688A11.887,11.887,0,0,0,32.368-4.1Z" transform="translate(187.5 402)" fill="#e59601"/>
        <path id="Path_106921" data-name="Path 106921" d="M-13.7-10.224H-4v2h2.032V-12H-7.84v-1.536H-9.856V-12h-5.776v3.776H-13.7ZM-4.72-7.312V-9.04h-8.24v1.728ZM-5.376-.576c-.576,0-.672-.064-.672-.576V-4.368h4.384V-6.16H-15.92v1.792h3.792c-.24,1.984-.816,3.36-4.24,4.1a5.941,5.941,0,0,1,1.1,1.7c4.016-1.056,4.9-3.04,5.216-5.792h2.08V-1.12c0,1.728.448,2.272,2.3,2.272h2.048c1.52,0,2-.608,2.208-2.928A6.057,6.057,0,0,1-3.12-2.5c-.064,1.664-.144,1.92-.672,1.92Zm19.2-11.984-.464.128H2.448v1.872h9.28A18.367,18.367,0,0,1,8.96-8.112H7.888V-.864c0,.272-.112.352-.464.352C7.056-.5,5.744-.5,4.624-.56a8.071,8.071,0,0,1,.752,1.952,11.242,11.242,0,0,0,3.472-.32C9.632.784,9.9.272,9.9-.832v-5.68a24.514,24.514,0,0,0,5.408-4.944Z" transform="translate(305 402)" fill="#d0d0d0"/>
        <path id="Path_106922" data-name="Path 106922" d="M-12.918-8.281a.65.65,0,0,1-.179.214A.4.4,0,0,1-13.331-8a.6.6,0,0,1-.319-.108q-.171-.109-.41-.241a3.372,3.372,0,0,0-.556-.241,2.339,2.339,0,0,0-.753-.109,2.246,2.246,0,0,0-.686.094,1.441,1.441,0,0,0-.493.263,1.049,1.049,0,0,0-.3.4,1.321,1.321,0,0,0-.1.515.9.9,0,0,0,.2.595,1.666,1.666,0,0,0,.528.406,4.9,4.9,0,0,0,.749.3q.42.133.861.283a8.11,8.11,0,0,1,.861.35,2.972,2.972,0,0,1,.749.5,2.284,2.284,0,0,1,.528.745,2.589,2.589,0,0,1,.2,1.071A3.49,3.49,0,0,1-12.5-1.886a2.963,2.963,0,0,1-.686,1.043,3.231,3.231,0,0,1-1.1.7,4.059,4.059,0,0,1-1.491.256,4.808,4.808,0,0,1-.952-.095,5.011,5.011,0,0,1-.9-.269,4.819,4.819,0,0,1-.809-.42,3.9,3.9,0,0,1-.672-.546l.553-.9a.59.59,0,0,1,.182-.164.459.459,0,0,1,.238-.066.668.668,0,0,1,.378.144q.2.143.483.318a3.8,3.8,0,0,0,.654.319,2.517,2.517,0,0,0,.9.144,1.846,1.846,0,0,0,1.246-.382,1.37,1.37,0,0,0,.441-1.1,1.017,1.017,0,0,0-.2-.651,1.611,1.611,0,0,0-.528-.423,3.946,3.946,0,0,0-.749-.291q-.42-.119-.854-.259a7.364,7.364,0,0,1-.854-.336,2.767,2.767,0,0,1-.749-.511,2.325,2.325,0,0,1-.528-.788,3,3,0,0,1-.2-1.166,2.759,2.759,0,0,1,.22-1.078,2.783,2.783,0,0,1,.641-.931A3.138,3.138,0,0,1-16.8-9.989a3.8,3.8,0,0,1,1.414-.245,4.722,4.722,0,0,1,1.652.28,3.729,3.729,0,0,1,1.288.784Zm4.8,8.393A1.887,1.887,0,0,1-9.555-.417a2.037,2.037,0,0,1-.5-1.46V-5.887h-.735a.337.337,0,0,1-.238-.091.355.355,0,0,1-.1-.273v-.686l1.155-.189.364-1.96A.384.384,0,0,1-9.474-9.3a.4.4,0,0,1,.252-.077h.9v2.261h1.918v1.232H-8.326V-2a.774.774,0,0,0,.165.525.567.567,0,0,0,.451.189.814.814,0,0,0,.269-.038A1.483,1.483,0,0,0-7.252-1.4q.08-.042.144-.081a.24.24,0,0,1,.126-.038.2.2,0,0,1,.126.038.584.584,0,0,1,.105.115l.518.84A2.617,2.617,0,0,1-7.1-.049,3.231,3.231,0,0,1-8.116.112ZM-.031-4.417A2.081,2.081,0,0,0-.126-5.05a1.506,1.506,0,0,0-.284-.522,1.318,1.318,0,0,0-.479-.353,1.646,1.646,0,0,0-.675-.13,1.6,1.6,0,0,0-1.179.427,2.094,2.094,0,0,0-.549,1.211Zm-3.3,1.043a3.4,3.4,0,0,0,.2.956,1.954,1.954,0,0,0,.406.665,1.59,1.59,0,0,0,.6.392,2.174,2.174,0,0,0,.766.13,2.376,2.376,0,0,0,.725-.1A3.4,3.4,0,0,0-.1-1.547q.228-.119.4-.217a.669.669,0,0,1,.332-.1A.358.358,0,0,1,.949-1.7l.5.63A2.882,2.882,0,0,1,.8-.507a3.612,3.612,0,0,1-.746.364A4.075,4.075,0,0,1-.735.049,5.664,5.664,0,0,1-1.515.1,3.837,3.837,0,0,1-2.908-.144a3.118,3.118,0,0,1-1.12-.735,3.448,3.448,0,0,1-.749-1.2A4.659,4.659,0,0,1-5.05-3.745a3.976,3.976,0,0,1,.238-1.382A3.324,3.324,0,0,1-4.13-6.254a3.213,3.213,0,0,1,1.085-.76A3.574,3.574,0,0,1-1.6-7.294a3.516,3.516,0,0,1,1.253.217,2.73,2.73,0,0,1,.987.634,2.934,2.934,0,0,1,.648,1.022,3.808,3.808,0,0,1,.234,1.383,1.122,1.122,0,0,1-.084.529.348.348,0,0,1-.322.136ZM5.247-1.862a1.7,1.7,0,0,0,.641.5,1.907,1.907,0,0,0,.752.147,1.652,1.652,0,0,0,.707-.147,1.385,1.385,0,0,0,.536-.448,2.216,2.216,0,0,0,.34-.76A4.34,4.34,0,0,0,8.34-3.647a4.8,4.8,0,0,0-.1-1.067,2.062,2.062,0,0,0-.291-.71,1.148,1.148,0,0,0-.458-.4,1.43,1.43,0,0,0-.613-.126,1.747,1.747,0,0,0-.917.228,2.783,2.783,0,0,0-.714.64ZM5.155-6.2a3.746,3.746,0,0,1,1-.805,2.689,2.689,0,0,1,1.316-.308,2.355,2.355,0,0,1,1.075.245,2.411,2.411,0,0,1,.84.71,3.408,3.408,0,0,1,.546,1.148,5.777,5.777,0,0,1,.193,1.564,4.92,4.92,0,0,1-.217,1.491,3.649,3.649,0,0,1-.62,1.19,2.862,2.862,0,0,1-.973.787A2.831,2.831,0,0,1,7.038.1,2.575,2.575,0,0,1,6.009-.08,2.514,2.514,0,0,1,5.247-.6v2.94H3.517V-7.182H4.575a.425.425,0,0,1,.441.315ZM18.561-1.3V0h-5.6V-1.3h2.051V-7.2q0-.35.021-.721L13.576-6.7a.6.6,0,0,1-.248.123.594.594,0,0,1-.231,0,.561.561,0,0,1-.193-.074.407.407,0,0,1-.126-.115l-.546-.749,3.087-2.625H16.74V-1.3Z" transform="translate(70 373)" fill="#fff"/>
        <path id="Path_106923" data-name="Path 106923" d="M-12.918-8.281a.65.65,0,0,1-.179.214A.4.4,0,0,1-13.331-8a.6.6,0,0,1-.319-.108q-.171-.109-.41-.241a3.372,3.372,0,0,0-.556-.241,2.339,2.339,0,0,0-.753-.109,2.246,2.246,0,0,0-.686.094,1.441,1.441,0,0,0-.493.263,1.049,1.049,0,0,0-.3.4,1.321,1.321,0,0,0-.1.515.9.9,0,0,0,.2.595,1.666,1.666,0,0,0,.528.406,4.9,4.9,0,0,0,.749.3q.42.133.861.283a8.11,8.11,0,0,1,.861.35,2.972,2.972,0,0,1,.749.5,2.284,2.284,0,0,1,.528.745,2.589,2.589,0,0,1,.2,1.071A3.49,3.49,0,0,1-12.5-1.886a2.963,2.963,0,0,1-.686,1.043,3.231,3.231,0,0,1-1.1.7,4.059,4.059,0,0,1-1.491.256,4.808,4.808,0,0,1-.952-.095,5.011,5.011,0,0,1-.9-.269,4.819,4.819,0,0,1-.809-.42,3.9,3.9,0,0,1-.672-.546l.553-.9a.59.59,0,0,1,.182-.164.459.459,0,0,1,.238-.066.668.668,0,0,1,.378.144q.2.143.483.318a3.8,3.8,0,0,0,.654.319,2.517,2.517,0,0,0,.9.144,1.846,1.846,0,0,0,1.246-.382,1.37,1.37,0,0,0,.441-1.1,1.017,1.017,0,0,0-.2-.651,1.611,1.611,0,0,0-.528-.423,3.946,3.946,0,0,0-.749-.291q-.42-.119-.854-.259a7.364,7.364,0,0,1-.854-.336,2.767,2.767,0,0,1-.749-.511,2.325,2.325,0,0,1-.528-.788,3,3,0,0,1-.2-1.166,2.759,2.759,0,0,1,.22-1.078,2.783,2.783,0,0,1,.641-.931A3.138,3.138,0,0,1-16.8-9.989a3.8,3.8,0,0,1,1.414-.245,4.722,4.722,0,0,1,1.652.28,3.729,3.729,0,0,1,1.288.784Zm4.8,8.393A1.887,1.887,0,0,1-9.555-.417a2.037,2.037,0,0,1-.5-1.46V-5.887h-.735a.337.337,0,0,1-.238-.091.355.355,0,0,1-.1-.273v-.686l1.155-.189.364-1.96A.384.384,0,0,1-9.474-9.3a.4.4,0,0,1,.252-.077h.9v2.261h1.918v1.232H-8.326V-2a.774.774,0,0,0,.165.525.567.567,0,0,0,.451.189.814.814,0,0,0,.269-.038A1.483,1.483,0,0,0-7.252-1.4q.08-.042.144-.081a.24.24,0,0,1,.126-.038.2.2,0,0,1,.126.038.584.584,0,0,1,.105.115l.518.84A2.617,2.617,0,0,1-7.1-.049,3.231,3.231,0,0,1-8.116.112ZM-.031-4.417A2.081,2.081,0,0,0-.126-5.05a1.506,1.506,0,0,0-.284-.522,1.318,1.318,0,0,0-.479-.353,1.646,1.646,0,0,0-.675-.13,1.6,1.6,0,0,0-1.179.427,2.094,2.094,0,0,0-.549,1.211Zm-3.3,1.043a3.4,3.4,0,0,0,.2.956,1.954,1.954,0,0,0,.406.665,1.59,1.59,0,0,0,.6.392,2.174,2.174,0,0,0,.766.13,2.376,2.376,0,0,0,.725-.1A3.4,3.4,0,0,0-.1-1.547q.228-.119.4-.217a.669.669,0,0,1,.332-.1A.358.358,0,0,1,.949-1.7l.5.63A2.882,2.882,0,0,1,.8-.507a3.612,3.612,0,0,1-.746.364A4.075,4.075,0,0,1-.735.049,5.664,5.664,0,0,1-1.515.1,3.837,3.837,0,0,1-2.908-.144a3.118,3.118,0,0,1-1.12-.735,3.448,3.448,0,0,1-.749-1.2A4.659,4.659,0,0,1-5.05-3.745a3.976,3.976,0,0,1,.238-1.382A3.324,3.324,0,0,1-4.13-6.254a3.213,3.213,0,0,1,1.085-.76A3.574,3.574,0,0,1-1.6-7.294a3.516,3.516,0,0,1,1.253.217,2.73,2.73,0,0,1,.987.634,2.934,2.934,0,0,1,.648,1.022,3.808,3.808,0,0,1,.234,1.383,1.122,1.122,0,0,1-.084.529.348.348,0,0,1-.322.136ZM5.247-1.862a1.7,1.7,0,0,0,.641.5,1.907,1.907,0,0,0,.752.147,1.652,1.652,0,0,0,.707-.147,1.385,1.385,0,0,0,.536-.448,2.216,2.216,0,0,0,.34-.76A4.34,4.34,0,0,0,8.34-3.647a4.8,4.8,0,0,0-.1-1.067,2.062,2.062,0,0,0-.291-.71,1.148,1.148,0,0,0-.458-.4,1.43,1.43,0,0,0-.613-.126,1.747,1.747,0,0,0-.917.228,2.783,2.783,0,0,0-.714.64ZM5.155-6.2a3.746,3.746,0,0,1,1-.805,2.689,2.689,0,0,1,1.316-.308,2.355,2.355,0,0,1,1.075.245,2.411,2.411,0,0,1,.84.71,3.408,3.408,0,0,1,.546,1.148,5.777,5.777,0,0,1,.193,1.564,4.92,4.92,0,0,1-.217,1.491,3.649,3.649,0,0,1-.62,1.19,2.862,2.862,0,0,1-.973.787A2.831,2.831,0,0,1,7.038.1,2.575,2.575,0,0,1,6.009-.08,2.514,2.514,0,0,1,5.247-.6v2.94H3.517V-7.182H4.575a.425.425,0,0,1,.441.315ZM18.183-1.61a.616.616,0,0,1,.444.158.55.55,0,0,1,.164.416V0H11.847V-.574a1.03,1.03,0,0,1,.074-.367.942.942,0,0,1,.234-.347l3.073-3.08q.385-.392.689-.749a4.835,4.835,0,0,0,.508-.707,3.326,3.326,0,0,0,.311-.71,2.621,2.621,0,0,0,.109-.76,1.8,1.8,0,0,0-.105-.64,1.277,1.277,0,0,0-.3-.466,1.231,1.231,0,0,0-.462-.283,1.822,1.822,0,0,0-.606-.094,1.794,1.794,0,0,0-.57.087,1.554,1.554,0,0,0-.465.245A1.553,1.553,0,0,0,14-8.078a1.6,1.6,0,0,0-.21.462.766.766,0,0,1-.308.427.863.863,0,0,1-.546.049l-.91-.161a3.754,3.754,0,0,1,.406-1.278,3.063,3.063,0,0,1,.752-.917,3.117,3.117,0,0,1,1.036-.553,4.132,4.132,0,0,1,1.257-.186,3.8,3.8,0,0,1,1.281.207,2.881,2.881,0,0,1,.994.585,2.646,2.646,0,0,1,.644.91,2.94,2.94,0,0,1,.231,1.183,3.152,3.152,0,0,1-.165,1.036,4.308,4.308,0,0,1-.441.91,6.127,6.127,0,0,1-.647.84q-.371.406-.777.826L14.312-1.407a5.182,5.182,0,0,1,.654-.15,3.9,3.9,0,0,1,.62-.053Z" transform="translate(187.5 373)" fill="#fff"/>
        <path id="Path_106924" data-name="Path 106924" d="M-12.918-8.281a.65.65,0,0,1-.179.214A.4.4,0,0,1-13.331-8a.6.6,0,0,1-.319-.108q-.171-.109-.41-.241a3.372,3.372,0,0,0-.556-.241,2.339,2.339,0,0,0-.753-.109,2.246,2.246,0,0,0-.686.094,1.441,1.441,0,0,0-.493.263,1.049,1.049,0,0,0-.3.4,1.321,1.321,0,0,0-.1.515.9.9,0,0,0,.2.595,1.666,1.666,0,0,0,.528.406,4.9,4.9,0,0,0,.749.3q.42.133.861.283a8.11,8.11,0,0,1,.861.35,2.972,2.972,0,0,1,.749.5,2.284,2.284,0,0,1,.528.745,2.589,2.589,0,0,1,.2,1.071A3.49,3.49,0,0,1-12.5-1.886a2.963,2.963,0,0,1-.686,1.043,3.231,3.231,0,0,1-1.1.7,4.059,4.059,0,0,1-1.491.256,4.808,4.808,0,0,1-.952-.095,5.011,5.011,0,0,1-.9-.269,4.819,4.819,0,0,1-.809-.42,3.9,3.9,0,0,1-.672-.546l.553-.9a.59.59,0,0,1,.182-.164.459.459,0,0,1,.238-.066.668.668,0,0,1,.378.144q.2.143.483.318a3.8,3.8,0,0,0,.654.319,2.517,2.517,0,0,0,.9.144,1.846,1.846,0,0,0,1.246-.382,1.37,1.37,0,0,0,.441-1.1,1.017,1.017,0,0,0-.2-.651,1.611,1.611,0,0,0-.528-.423,3.946,3.946,0,0,0-.749-.291q-.42-.119-.854-.259a7.364,7.364,0,0,1-.854-.336,2.767,2.767,0,0,1-.749-.511,2.325,2.325,0,0,1-.528-.788,3,3,0,0,1-.2-1.166,2.759,2.759,0,0,1,.22-1.078,2.783,2.783,0,0,1,.641-.931A3.138,3.138,0,0,1-16.8-9.989a3.8,3.8,0,0,1,1.414-.245,4.722,4.722,0,0,1,1.652.28,3.729,3.729,0,0,1,1.288.784Zm4.8,8.393A1.887,1.887,0,0,1-9.555-.417a2.037,2.037,0,0,1-.5-1.46V-5.887h-.735a.337.337,0,0,1-.238-.091.355.355,0,0,1-.1-.273v-.686l1.155-.189.364-1.96A.384.384,0,0,1-9.474-9.3a.4.4,0,0,1,.252-.077h.9v2.261h1.918v1.232H-8.326V-2a.774.774,0,0,0,.165.525.567.567,0,0,0,.451.189.814.814,0,0,0,.269-.038A1.483,1.483,0,0,0-7.252-1.4q.08-.042.144-.081a.24.24,0,0,1,.126-.038.2.2,0,0,1,.126.038.584.584,0,0,1,.105.115l.518.84A2.617,2.617,0,0,1-7.1-.049,3.231,3.231,0,0,1-8.116.112ZM-.031-4.417A2.081,2.081,0,0,0-.126-5.05a1.506,1.506,0,0,0-.284-.522,1.318,1.318,0,0,0-.479-.353,1.646,1.646,0,0,0-.675-.13,1.6,1.6,0,0,0-1.179.427,2.094,2.094,0,0,0-.549,1.211Zm-3.3,1.043a3.4,3.4,0,0,0,.2.956,1.954,1.954,0,0,0,.406.665,1.59,1.59,0,0,0,.6.392,2.174,2.174,0,0,0,.766.13,2.376,2.376,0,0,0,.725-.1A3.4,3.4,0,0,0-.1-1.547q.228-.119.4-.217a.669.669,0,0,1,.332-.1A.358.358,0,0,1,.949-1.7l.5.63A2.882,2.882,0,0,1,.8-.507a3.612,3.612,0,0,1-.746.364A4.075,4.075,0,0,1-.735.049,5.664,5.664,0,0,1-1.515.1,3.837,3.837,0,0,1-2.908-.144a3.118,3.118,0,0,1-1.12-.735,3.448,3.448,0,0,1-.749-1.2A4.659,4.659,0,0,1-5.05-3.745a3.976,3.976,0,0,1,.238-1.382A3.324,3.324,0,0,1-4.13-6.254a3.213,3.213,0,0,1,1.085-.76A3.574,3.574,0,0,1-1.6-7.294a3.516,3.516,0,0,1,1.253.217,2.73,2.73,0,0,1,.987.634,2.934,2.934,0,0,1,.648,1.022,3.808,3.808,0,0,1,.234,1.383,1.122,1.122,0,0,1-.084.529.348.348,0,0,1-.322.136ZM5.247-1.862a1.7,1.7,0,0,0,.641.5,1.907,1.907,0,0,0,.752.147,1.652,1.652,0,0,0,.707-.147,1.385,1.385,0,0,0,.536-.448,2.216,2.216,0,0,0,.34-.76A4.34,4.34,0,0,0,8.34-3.647a4.8,4.8,0,0,0-.1-1.067,2.062,2.062,0,0,0-.291-.71,1.148,1.148,0,0,0-.458-.4,1.43,1.43,0,0,0-.613-.126,1.747,1.747,0,0,0-.917.228,2.783,2.783,0,0,0-.714.64ZM5.155-6.2a3.746,3.746,0,0,1,1-.805,2.689,2.689,0,0,1,1.316-.308,2.355,2.355,0,0,1,1.075.245,2.411,2.411,0,0,1,.84.71,3.408,3.408,0,0,1,.546,1.148,5.777,5.777,0,0,1,.193,1.564,4.92,4.92,0,0,1-.217,1.491,3.649,3.649,0,0,1-.62,1.19,2.862,2.862,0,0,1-.973.787A2.831,2.831,0,0,1,7.038.1,2.575,2.575,0,0,1,6.009-.08,2.514,2.514,0,0,1,5.247-.6v2.94H3.517V-7.182H4.575a.425.425,0,0,1,.441.315Zm6.916-1.1a3.754,3.754,0,0,1,.406-1.278A3.063,3.063,0,0,1,13.23-9.5a3.117,3.117,0,0,1,1.036-.553,4.132,4.132,0,0,1,1.257-.186,3.768,3.768,0,0,1,1.263.2,2.884,2.884,0,0,1,.963.553,2.422,2.422,0,0,1,.612.83,2.485,2.485,0,0,1,.214,1.029,3.012,3.012,0,0,1-.109.851,2.022,2.022,0,0,1-.312.641,1.84,1.84,0,0,1-.5.462,3.137,3.137,0,0,1-.679.315,2.644,2.644,0,0,1,1.358.875A2.367,2.367,0,0,1,18.778-3a3.044,3.044,0,0,1-.28,1.337,2.873,2.873,0,0,1-.756.977,3.294,3.294,0,0,1-1.1.6,4.277,4.277,0,0,1-1.326.2,4.526,4.526,0,0,1-1.33-.175A2.888,2.888,0,0,1,13-.581a3.128,3.128,0,0,1-.714-.84,5.669,5.669,0,0,1-.5-1.148l.763-.315a.916.916,0,0,1,.563-.066.546.546,0,0,1,.382.283q.126.245.276.483a1.959,1.959,0,0,0,.361.423,1.716,1.716,0,0,0,.493.3,1.787,1.787,0,0,0,.675.115,1.913,1.913,0,0,0,.77-.144,1.672,1.672,0,0,0,.549-.374,1.536,1.536,0,0,0,.329-.515,1.585,1.585,0,0,0,.108-.57,2.64,2.64,0,0,0-.077-.661.98.98,0,0,0-.322-.508,1.749,1.749,0,0,0-.7-.329,5.074,5.074,0,0,0-1.228-.119V-5.8a4.374,4.374,0,0,0,1.057-.119,1.8,1.8,0,0,0,.669-.312,1.055,1.055,0,0,0,.347-.479,1.854,1.854,0,0,0,.1-.616,1.41,1.41,0,0,0-.4-1.085,1.5,1.5,0,0,0-1.064-.371,1.762,1.762,0,0,0-.567.087,1.612,1.612,0,0,0-.465.245,1.522,1.522,0,0,0-.347.368,1.6,1.6,0,0,0-.21.462.758.758,0,0,1-.312.427.858.858,0,0,1-.542.049Z" transform="translate(305 373)" fill="#fff"/>
      </g>
    </g>
  </g>
</svg>
